<?xml version="1.0" standalone="no"?>
<!DOCTYPE svg PUBLIC "-//W3C//DTD SVG 1.1//EN" "http://www.w3.org/Graphics/SVG/1.1/DTD/svg11.dtd" >
<!--
2013-9-30: Created.
-->
<svg>
<metadata>
Created by iconfont
</metadata>
<defs>

<font id="iconfont" horiz-adv-x="1024" >
  <font-face
    font-family="iconfont"
    font-weight="500"
    font-stretch="normal"
    units-per-em="1024"
    ascent="896"
    descent="-128"
  />
    <missing-glyph />
    
    <glyph glyph-name="menu" unicode="&#58983;" d="M133.213 662.26v0zM886.905 586.899h-753.691c-41.623 0-75.364 33.741-75.364 75.361s33.743 75.361 75.364 75.361h753.691c41.623 0 75.364-33.741 75.364-75.361s-33.743-75.361-75.364-75.361zM133.213 379.63699999999994v0zM886.905 304.27700000000004h-753.691c-41.623 0-75.364 33.741-75.364 75.361s33.743 75.361 75.364 75.361h753.691c41.623 0 75.364-33.741 75.364-75.361s-33.743-75.361-75.364-75.361zM133.213 97.01700000000005v0zM886.905 21.653999999999996h-753.691c-41.623 0-75.364 33.741-75.364 75.361s33.743 75.361 75.364 75.361h753.691c41.623 0 75.364-33.741 75.364-75.361s-33.743-75.361-75.364-75.361z"  horiz-adv-x="1024" />

    
    <glyph glyph-name="facebook" unicode="&#59258;" d="M672.00704 704.00384c-88.369433 0-160.00704-71.637607-160.00704-160.00704l0-96.00832-127.99744 0 0-127.99744 127.99744 0 0-447.99104 127.99744 0 0 447.99104 143.992 0 32.0096 127.99744-176.0016 0 0 96.00832c0 17.673887 14.335713 32.0096 32.0096 32.0096l160.00704 0 0 127.99744-160.00704 0z"  horiz-adv-x="1024" />

    
    <glyph glyph-name="renren" unicode="&#60333;" d="M720.603429-1.170286q-97.718857-53.686857-210.285714-53.686857-111.981714 0-209.700571 53.686857 78.848 49.737143 134.582857 120.539429t75.117714 153.161143q19.968-82.285714 75.702857-153.161143t134.582857-120.539429zM437.686857 814.884571l0-277.138286q0-144.018286-72.265143-262.582857t-188.854857-175.177143q-103.424 122.88-103.424 282.843429 0 106.861714 47.689143 199.68t131.145143 153.965714 185.709714 78.262857zM950.857143 382.829714q0-160.036571-103.424-282.843429-116.589714 56.539429-188.854857 175.177143t-72.265143 262.582857l0 277.138286q102.253714-17.115429 185.709714-78.262857t131.145143-153.965714 47.689143-199.68z"  horiz-adv-x="1024" />

    
    <glyph glyph-name="douban" unicode="&#59061;" d="M88.217 822.917l847.533 0 0-95.469-847.533 0 0 95.469ZM862.075 254.638l0 373.22L161.892 627.858l0-373.22L862.075 254.638zM263.428 532.455l498.134 0 0-182.463L263.428 349.992 263.428 532.455zM710.62 39.514c30.466 46.638 59.218 100.728 85.858 162.12l-101.865 37.128c-26.493-72.754-57.338-139.273-92.437-199.248L424.922 39.514c-29.377 77.73-62.53 144.202-99.722 199.248l-93.688-37.128c38.642-57.963 69.8-111.921 93.688-162.12L64.246 39.514l0-94.431 895.508 0 0 94.431L710.62 39.514z"  horiz-adv-x="1024" />

    
    <glyph glyph-name="dianzan" unicode="&#58892;" d="M884.876 472.857h-237.905c92.186 340.464-63.517 357.853-63.517 357.853-65.993 0-52.312-52.182-57.303-60.882 0-166.502-176.85-296.972-176.85-296.972v-472.172c0-46.608 63.517-63.394 88.433-63.394h357.452c33.641 0 61.036 88.224 61.036 88.224 88.434 300.706 88.434 390.177 88.434 390.177 0.001 62.128-59.781 57.164-59.781 57.164v0 0zM251.671 472.7h-142.457c-29.42 0-29.873-28.896-29.873-28.896l29.42-476.203c0-30.309 30.361-30.309 30.361-30.309h123.297c25.686 0 25.459 20.050 25.459 20.050l-0 479.247c0 36.574-36.208 36.111-36.208 36.111v0 0zM251.671 472.7z"  horiz-adv-x="1024" />

    
    <glyph glyph-name="linkhorizontal" unicode="&#59089;" d="M127.040672 252.354552l0 263.188568 290.7149 0c16.986509 0 30.698511 13.712002 30.698511 30.698511 0 16.986509-13.712002 30.698511-30.698511 30.698511l-309.134006 0c-11.460777 0-22.307585-4.502448-30.391526-12.58639s-12.58639-18.930748-12.58639-30.391526l0-300.026781c0-23.740182 19.237734-42.977915 42.977915-42.977915l309.134006 0c8.493255 0 16.167882 3.479165 21.693614 9.004897s9.004897 13.20036 9.004897 21.693614c0 16.986509-13.712002 30.698511-30.698511 30.698511L127.040672 252.354552zM915.480763 576.9401419999999L608.393325 576.9401419999999c-16.986509 0-30.698511-13.712002-30.698511-30.698511 0-16.986509 13.712002-30.698511 30.698511-30.698511l288.668332 0 0-263.188568-288.668332 0c-16.986509 0-30.698511-13.712002-30.698511-30.698511 0-16.986509 13.712002-30.698511 30.698511-30.698511l307.087439 0c11.460777 0 22.205256 4.502448 30.391526 12.58639 8.083941 8.083941 12.58639 18.930748 12.58639 30.391526L958.458679 533.962226c0 11.460777-4.502448 22.205256-12.58639 30.391526S926.941541 576.9401419999999 915.480763 576.9401419999999zM663.445988 362.255221c5.525732 5.525732 9.004897 13.20036 9.004897 21.693614 0 16.986509-13.712002 30.698511-30.698511 30.698511l-256.12791 0c-16.986509 0-30.698511-13.712002-30.698511-30.698511 0-16.986509 13.712002-30.698511 30.698511-30.698511l256.12791 0C650.245628 353.250325 657.920256 356.72948899999994 663.445988 362.255221z"  horiz-adv-x="1024" />

    
    <glyph glyph-name="eye" unicode="&#59346;" d="M987.52 528.64c-108.16 146.56-266.88 239.36-444.16 239.36-177.28 0-335.36-92.8-444.16-239.36-48-64.64-48-160.64 0-225.28C208 156.79999999999995 366.72 64 543.36 64c177.28 0 335.36 92.8 444.16 239.36C1035.52 368 1035.52 464 987.52 528.64zM544 192C420.48 192 320 292.48 320 416S420.48 640 544 640C667.52 640 768 539.52 768 416S667.52 192 544 192zM544 576C455.68 576 384 504.32 384 416S455.68 256 544 256C632.32 256 704 327.67999999999995 704 416S632.32 576 544 576z"  horiz-adv-x="1024" />

    
    <glyph glyph-name="heart" unicode="&#58882;" d="M512-23.194001999999955l-64.352657 58.361199C219.085764 242.64662199999998 68.191078 379.561921 68.191078 547.099658c0 136.915299 107.180068 244.094344 244.094344 244.094344 77.222779 0 151.3388-35.948747 199.713554-92.53451 48.374754 56.585763 122.490775 92.53451 199.713554 92.53451 136.915299 0 244.094344-107.180068 244.094344-244.094344 0-167.537737-150.894685-304.453037-379.456265-511.933485L512-23.194001999999955z"  horiz-adv-x="1024" />

    
    <glyph glyph-name="weibo" unicode="&#58945;" d="M386.119523 163.9994c7.482415 12.238742 9.521864 25.157983 6.121418 38.759769-3.40147 13.598716-11.901051 23.12058-25.50079 28.559453-12.919241 5.439896-26.859741 5.439896-41.819454 0-14.959713-5.438872-26.180266-13.9405-33.660634-25.50079-8.840342-12.920264-11.56029-25.839505-8.160867-38.758746 3.400446-12.921287 11.56029-22.781866 24.480554-29.581736 12.919241-6.79987 27.200502-7.139607 42.839691-1.019213C366.060675 142.577508 377.961726 151.757588 386.119523 163.9994L386.119523 163.9994zM439.161576 232.338858c3.399423 4.758374 4.078899 9.859555 2.039449 15.300474-2.039449 5.438872-5.438872 8.838296-10.200316 10.19827-4.759397 2.039449-10.199293 2.039449-16.319687 0-6.118348-2.039449-10.199293-5.438872-12.239765-10.19827-6.118348-12.240789-3.399423-21.082154 8.16189-26.52205 5.437849-1.359974 10.879792-1.01819 16.319687 1.02126C432.361707 224.177991 436.441629 227.578438 439.161576 232.338858L439.161576 232.338858zM538.101983 171.136961c-16.999163-38.757722-46.921659-66.977437-89.760326-84.658122-42.839691-17.680684-85.340667-20.060895-127.501906-7.141654-40.800241 12.922311-68.681242 37.063127-83.640955 72.421426-14.959713 35.359322-13.9405 70.719668 3.060709 106.080014 18.359137 35.362392 47.260373 61.882396 86.699618 79.562057 39.441291 17.679661 79.221296 21.080108 119.342062 10.200316 42.158169-10.880815 72.41938-33.32192 90.779539-67.320245C555.441906 246.278335 555.782667 209.897753 538.101983 171.136961zM715.58421 262.93776c-3.399423 36.041868-20.060895 68.000743-49.983391 95.880721-29.918403 27.879977-69.698408 48.621371-119.338992 62.22111-49.63956 13.600763-101.660354 17.679661-156.061358 12.240789-84.319407-8.842389-154.360623-35.701107-210.120578-80.58127-55.760978-44.881187-80.921008-95.200222-75.480088-150.960177 3.399423-36.040844 20.399609-68.00279 51.000558-95.881744 30.598902-27.877931 70.040193-48.619324 118.320802-62.220087 48.279586-13.599739 100.30038-17.677615 156.060335-12.239765 84.999906 8.838296 155.040099 35.69906 210.120578 80.580247C695.184601 156.857746 720.342584 207.178829 715.58421 262.93776L715.58421 262.93776zM891.024941 259.877051c0-25.838482-6.800893-52.018747-20.402679-78.538751-13.600763-26.521027-34.339086-52.700269-62.220087-78.540797-27.878954-25.840528-59.8409-47.941895-95.880721-66.302055-36.039821-18.358113-78.880535-34.341133-128.521119-47.940872-49.641607-13.598716-100.979856-19.379373-154.020886-17.3389s-105.400538 8.500605-157.081595 19.379373c-51.680033 10.881838-97.240695 28.220738-136.681986 52.021817-39.440267 23.799032-72.079642 52.700269-97.92017 86.701664C12.455171 163.317878 0.215406 201.056388 1.576403 242.538151c0 43.522236 13.260002 90.101087 39.781028 139.740648 26.520003 49.64263 63.919798 98.601692 112.200408 146.882302 63.920822 63.920822 128.860856 108.461247 194.822151 133.6223 65.960271 25.159006 112.542192 24.139793 139.742694-3.059686 24.478508-24.480554 28.217668-64.261583 11.220552-119.342062-1.359974-5.440919-1.359974-9.18008 0-11.220552 1.359974-2.039449 3.058662-3.399423 5.099135-4.079922 2.037403-0.678452 4.758374-0.678452 8.15882 0 3.399423 0.680499 6.119371 1.360997 8.160867 2.040473l3.059686 1.020236c53.04103 22.440082 99.961666 33.660634 140.761907 33.660634s69.699432-11.56029 86.701664-34.68087c17.000186-23.800056 17.000186-57.46069 0-100.980879-0.681522-5.438872-1.699712-9.18008-3.060709-11.219529-1.357927-2.040473-0.338714-4.420683 3.060709-7.141654 3.3984-2.719948 5.779633-4.418636 7.140631-5.098111 1.360997-0.680499 4.419659-1.701758 9.181103-3.061732 21.76163-6.800893 41.479717-15.639189 59.160401-26.520003 17.681708-10.880815 32.639375-26.520003 44.881187-46.920636C883.883287 305.777451 890.345466 283.67813 891.024941 259.877051L891.024941 259.877051zM849.205487 615.861742c15.639189-18.36016 25.838482-39.10053 30.598902-62.22111 4.758374-23.118534 3.741207-45.559639-3.059686-67.321268-3.40147-8.15882-9.18008-14.619976-17.339924-19.379373-8.160867-4.76042-16.658402-5.439896-25.499767-2.040473-8.162914 3.400446-14.623046 9.18008-19.380396 17.340947-4.758374 8.157797-5.438872 16.660448-2.040473 25.498744 7.482415 23.801079 3.059686 44.541449-13.258978 62.222133-16.319687 17.678638-36.72032 24.479531-61.200874 20.400632-8.841366-2.039449-17.337877-0.679475-25.499767 4.079922-8.16189 4.76042-12.921287 11.901051-14.281261 21.420869-2.040473 9.519818-0.338714 18.019399 5.099135 25.50079 5.439896 7.480368 12.241812 12.239765 20.401656 14.280238 23.121604 4.759397 45.899376 3.739161 68.338435-3.060709C814.523593 645.781168 833.562205 633.542426 849.205487 615.861742zM952.225815 708.681754c32.639375-36.72032 54.057173-79.221296 64.260559-127.500882 10.201339-48.28061 7.481392-93.840248-8.162914-136.681986-3.397377-10.199293-9.859555-18.018376-19.377326-23.459295-9.521864-5.438872-19.380396-6.119371-29.581736-2.039449-10.199293 4.078899-17.679661 10.539031-22.441105 19.379373-4.758374 8.841366-5.779633 18.699897-3.059686 29.580712 10.880815 31.279401 12.919241 63.919798 6.119371 97.919147-6.800893 34.001395-22.101367 63.921845-45.899376 89.76135-23.802102 26.520003-52.020794 44.539402-84.661192 54.060243-32.639375 9.519818-65.281819 11.220552-97.922217 5.100158-10.878768-2.040473-20.738323 0-29.577642 6.120394s-14.618952 14.280238-17.3389 24.480554c-2.721994 10.199293-1.019213 20.060895 5.100158 29.579689 6.118348 9.520841 14.616906 14.959713 25.50079 16.321734 46.239114 9.518794 92.478228 7.479345 138.721435-6.120394C880.144126 771.582339 919.585417 746.082572 952.225815 708.681754L952.225815 708.681754z"  horiz-adv-x="1024" />

    
    <glyph glyph-name="code" unicode="&#58903;" d="M352.566857 96.56685700000003l-28.562286-28.562286q-5.705143-5.705143-13.147429-5.705143t-13.147429 5.705143l-266.294857 266.294857q-5.705143 5.705143-5.705143 13.147429t5.705143 13.147429l266.294857 266.294857q5.705143 5.705143 13.147429 5.705143t13.147429-5.705143l28.562286-28.562286q5.705143-5.705143 5.705143-13.147429t-5.705143-13.147429l-224.566857-224.566857 224.566857-224.566857q5.705143-5.705143 5.705143-13.147429t-5.705143-13.147429zM690.285714 706.285714l-213.138286-737.718857q-2.285714-7.424-8.850286-11.136t-13.421714-1.426286l-35.437714 9.709714q-7.424 2.285714-11.136 8.850286t-1.426286 14.006857l213.138286 737.718857q2.285714 7.424 8.850286 11.136t13.421714 1.426286l35.437714-9.709714q7.424-2.285714 11.136-8.850286t1.426286-14.006857zM1065.709714 334.28114300000004l-266.294857-266.294857q-5.705143-5.705143-13.147429-5.705143t-13.147429 5.705143l-28.562286 28.562286q-5.705143 5.705143-5.705143 13.147429t5.705143 13.147429l224.566857 224.566857-224.566857 224.566857q-5.705143 5.705143-5.705143 13.147429t5.705143 13.147429l28.562286 28.562286q5.705143 5.705143 13.147429 5.705143t13.147429-5.705143l266.294857-266.294857q5.705143-5.705143 5.705143-13.147429t-5.705143-13.147429z"  horiz-adv-x="1098" />

    
    <glyph glyph-name="twitter" unicode="&#59468;" d="M957.728 662.848q-38.272-56-92.576-95.424 0.576-8 0.576-24 0-74.272-21.728-148.288t-66.016-141.984-105.44-120.288-147.424-83.424-184.576-31.136q-154.848 0-283.424 82.848 20-2.272 44.576-2.272 128.576 0 229.152 78.848-60 1.152-107.424 36.864t-65.152 91.136q18.848-2.848 34.848-2.848 24.576 0 48.576 6.272-64 13.152-106.016 63.712t-42.016 117.44l0 2.272q38.848-21.728 83.424-23.424-37.728 25.152-60 65.728t-22.272 88q0 50.272 25.152 93.152 69.152-85.152 168.288-136.288t212.288-56.864q-4.576 21.728-4.576 42.272 0 76.576 54.016 130.56t130.56 54.016q80 0 134.848-58.272 62.272 12 117.152 44.576-21.152-65.728-81.152-101.728 53.152 5.728 106.272 28.576z"  horiz-adv-x="1024" />

    
    <glyph glyph-name="weixin" unicode="&#58986;" d="M720.29989 551.09151c3.38699 0 6.209482 0 9.596472 0C697.719956 692.780595 548.127894 800.035281 368.052922 800.035281 164.833517 800.035281 0 663.426681 0 495.206174c0-99.351709 57.014333-187.413451 145.640573-242.734289l-36.692393-111.770673 131.528115 68.868798c39.514884-12.418964 82.981257-18.628445 127.576626-18.628445 9.596472 0 19.192944 0.564498 28.224917 1.128997-7.902977 24.273429-12.418964 50.240353-12.418964 76.207277C383.858875 424.079383 534.579934 551.09151 720.29989 551.09151zM493.936053 650.443219c26.531422 0 47.982359-22.015436 47.982359-48.546858 0-27.095921-21.450937-48.546858-47.982359-48.546858S445.953693 574.800441 445.953693 601.896362C445.953693 628.427784 467.404631 650.443219 493.936053 650.443219zM239.911797 553.349504c-26.531422 0-47.982359 22.015436-47.982359 48.546858 0 27.095921 21.450937 48.546858 47.982359 48.546858s47.982359-22.015436 47.982359-48.546858C287.894157 574.800441 266.443219 553.349504 239.911797 553.349504zM1024 267.713341c0 141.689085-136.044101 256.846748-304.264609 256.846748-167.656009 0-304.264609-115.157663-304.264609-256.846748s136.044101-256.846748 304.264609-256.846748c35.563396 0 69.997795 5.080485 102.174201 14.676957l102.174201-57.578831-27.660419 90.319735C973.759647 105.137817 1024 181.345094 1024 267.713341zM620.948181 310.615215c-22.015436 0-40.079383 16.370452-40.079383 36.127894 0 19.757442 18.063947 36.127894 40.079383 36.127894s40.079383-16.370452 40.079383-36.127894C661.027563 326.421169 642.963616 310.615215 620.948181 310.615215zM820.216097 310.615215c-22.015436 0-40.079383 16.370452-40.079383 36.127894 0 19.757442 18.063947 36.127894 40.079383 36.127894s40.079383-16.370452 40.079383-36.127894C860.29548 326.421169 842.231533 310.615215 820.216097 310.615215z"  horiz-adv-x="1024" />

    
    <glyph glyph-name="huifu" unicode="&#58936;" d="M970.637652 163.679106c-19.910469 108.593254-80.294744 245.832941-180.468235 338.321402-49.990554 46.201252-104.933911 75.900667-161.2618 91.759867-7.0383 1.995447-14.101159 3.789303-21.180392 5.380544-7.076162 1.591241-14.168698 2.980891-21.271466 4.192485-14.198374 2.411933-28.430516 4.070712-42.643216 5.056156-9.981329 0.687662-19.950378 1.037632-29.891797 1.079588L513.920746 779.72274 49.933249 469.883019l463.989543-350.991979L513.922792 344.190319c53.097312-2.819209 131.329071-10.153244 189.679014-29.223578 108.702748-35.471886 209.359238-160.566976 240.97633-256.666684 7.968485-24.306592 5.074575 0.029676 8.043187-22.195511 0.094144-0.704035 8.459672-49.065486 8.546653-49.76338 3.761674 9.8176 6.91448 19.966751 9.416464 30.494525 5.074575 21.37482 7.579629 44.279483 7.576559 68.787666C978.156906 110.114143 975.644689 136.219707 970.637652 163.679106z"  horiz-adv-x="1024" />

    
    <glyph glyph-name="qzone" unicode="&#58937;" d="M852.982272 202.24c-46.08-23.04-58.88-43.52-48.64-94.72 10.24-53.76 23.04-110.08 33.28-163.84 2.56-10.24 0-23.04 0-33.28-15.36 2.56-35.84 0-48.64 7.68-30.72 17.92-58.88 43.52-92.16 64-58.88 35.84-117.76 69.12-186.88 76.8-12.8 2.56-25.6 0-35.84-5.12-79.36-43.52-158.72-87.04-235.52-133.12-17.92-10.24-33.28-12.8-46.08 0-7.68 7.68-5.12 23.04-5.12 35.84 15.36 92.16 33.28 186.88 51.2 279.04 2.56 17.92 0 30.72-15.36 43.52-71.68 64-140.8 125.44-209.92 192-7.68 5.12-15.36 20.48-12.8 25.6 2.56 7.68 15.36 15.36 25.6 15.36 94.72 12.8 186.88 25.6 281.6 38.4 17.92 2.56 28.16 10.24 35.84 25.6 51.2 89.6 102.4 179.2 153.6 268.8 5.12 7.68 12.8 12.8 17.92 20.48 7.68-7.68 15.36-12.8 17.92-20.48 43.52-89.6 87.04-181.76 128-273.92 7.68-17.92 20.48-28.16 40.96-28.16 99.84-7.68 197.12-17.92 296.96-28.16 7.68 0 15.36-7.68 23.04-10.24-5.12-7.68-7.68-17.92-12.8-23.04-66.56-66.56-135.68-133.12-202.24-199.68-15.36-15.36-25.6-40.96-43.52-69.12-92.16 7.68-194.56 15.36-304.64 23.04 104.96 74.24 204.8 145.92 309.76 222.72-186.88 48.64-366.08 38.4-545.28 2.56 0-2.56 0-7.68 0-10.24 122.88-7.68 245.76-17.92 368.64-25.6 2.56-2.56 2.56-5.12 5.12-7.68-7.68-7.68-15.36-15.36-25.6-20.48-89.6-58.88-179.2-115.2-266.24-174.08-10.24-7.68-20.48-15.36-30.72-25.6C474.102272 161.27999999999997 663.542272 184.32000000000005 852.982272 202.24z"  horiz-adv-x="1028" />

    
    <glyph glyph-name="time" unicode="&#58939;" d="M512 841.712c-252.823 0-457.712-204.847-457.712-457.67 0-252.781 204.93-457.753 457.712-457.753s457.712 204.972 457.712 457.753c0 252.823-204.972 457.67-457.712 457.67zM638.786 192.01099999999997l-168.397 150.379v374.492h83.22v-332.881l143.763-122.375-58.588-69.614z"  horiz-adv-x="1024" />

    
    <glyph glyph-name="comment" unicode="&#58893;" d="M847.36 788.48h-665.6c-69.12 0-125.44-56.32-125.44-125.44v-401.92c0-69.12 56.32-125.44 125.44-125.44h38.4l15.36-181.76 158.72 181.76h453.12c69.12 0 125.44 56.32 125.44 125.44V663.04c0 69.12-56.32 125.44-125.44 125.44z m-563.2-376.32c-33.28 0-61.44 28.16-61.44 61.44 0 33.28 28.16 61.44 61.44 61.44 33.28 0 61.44-28.16 61.44-61.44 2.56-33.28-25.6-61.44-61.44-61.44z m230.4 0c-33.28 0-61.44 28.16-61.44 61.44 0 33.28 28.16 61.44 61.44 61.44 33.28 0 61.44-28.16 61.44-61.44 0-33.28-28.16-61.44-61.44-61.44z m227.84 0c-33.28 0-61.44 28.16-61.44 61.44 0 33.28 28.16 61.44 61.44 61.44 33.28 0 61.44-28.16 61.44-61.44 2.56-33.28-25.6-61.44-61.44-61.44z"  horiz-adv-x="1024" />

    
    <glyph glyph-name="linkedin" unicode="&#59030;" d="M419.28-8.849h172.063v333.142c0 16.473 1.83 34.779 7.321 45.761 10.983 32.949 40.271 67.726 87.861 67.726 62.237 0 87.861-51.251 87.861-124.47v-320.329h172.063v342.295c0 170.234-84.201 248.941-197.689 248.941-91.524 0-148.265-54.915-170.234-91.524h-3.663l-7.321 78.709h-150.098c1.83-51.251 3.663-111.658 3.663-184.878v-395.379zM195.963 820.348c-54.915 0-91.524-38.441-89.692-91.524-1.83-49.422 34.779-89.692 89.692-89.692 56.743 0 93.354 40.271 93.354 89.692-3.663 53.085-38.441 91.524-93.354 91.524zM281.995-8.849v578.422h-172.063v-578.422h172.063z"  horiz-adv-x="1024" />

    
    <glyph glyph-name="emoji" unicode="&#58905;" d="M512 793.6A409.6 409.6 0 1 0 102.4 384 410.08 410.08 0 0 0 512 793.6m0 64A473.6 473.6 0 1 1 985.6 384 473.6 473.6 0 0 1 512 857.6zM317.12 504.448a74.016 59.2 90 1 1 118.4 0 74.016 59.2 90 1 1-118.4 0ZM588.48 504.448a74.016 59.2 90 1 1 118.4 0 74.016 59.2 90 1 1-118.4 0ZM806.112 338.048a31.808 31.808 0 0 1-31.36 4.576 757.696 757.696 0 0 0-525.504 0 32 32 0 0 1-43.392-33.92A316.288 316.288 0 0 1 512 27.072000000000003a316.288 316.288 0 0 1 306.144 281.6 32 32 0 0 1-12.032 29.376z m-121.6-170.08a569.6 569.6 0 0 0-345.088 0 264.96 264.96 0 0 0-57.76 96 829.248 829.248 0 0 1 460.64 0 264.928 264.928 0 0 0-57.76-96z"  horiz-adv-x="1024" />

    
    <glyph glyph-name="qq" unicode="&#58909;" d="M909.937778 231.196444c-18.432 110.876444-95.829333 183.523556-95.829333 183.523556 11.064889 100.664889-29.496889 118.528-29.496889 118.528C776.106667 844.686222 517.432889 839.224889 512 839.082667c-5.432889 0.142222-264.135111 5.603556-272.611556-305.863111 0 0-40.561778-17.863111-29.496889-118.528 0 0-77.397333-72.647111-95.829333-183.523556 0 0-9.841778-187.335111 88.462222-22.954667 0 0 22.129778-62.435556 62.663111-118.528 0 0-72.504889-25.486222-66.332444-91.761778 0 0-2.474667-73.898667 154.823111-68.835556 0 0 110.563556 8.903111 143.758222 57.344l29.240889 0c33.166222-48.440889 143.758222-57.344 143.758222-57.344 157.240889-5.091556 154.794667 68.835556 154.794667 68.835556 6.115556 66.247111-66.332444 91.761778-66.332444 91.761778 40.533333 56.092444 62.663111 118.528 62.663111 118.528C919.751111 43.832889 909.937778 231.196444 909.937778 231.196444L909.937778 231.196444zM909.937778 231.196444"  horiz-adv-x="1024" />

    
    <glyph glyph-name="link" unicode="&#58931;" d="M366.08 167.67999999999995L736 537.6c17.92 17.92 17.92 47.36 0 65.28-17.92 17.92-47.36 17.92-65.28 0L300.8 232.96000000000004c-17.92-17.92-17.92-47.36 0-65.28 17.92-17.92 47.36-17.92 65.28 0z m122.88 64c6.4-8.96 7.68-19.2 7.68-24.32 0-6.4-1.28-19.2-11.52-29.44L290.56-15.360000000000014c-10.24-10.24-23.04-11.52-29.44-11.52-6.4 0-19.2 1.28-29.44 11.52l-110.08 110.08c-10.24 10.24-11.52 23.04-11.52 29.44s1.28 19.2 11.52 29.44l194.56 194.56c10.24 10.24 23.04 11.52 29.44 11.52 5.12 0 11.52-1.28 19.2-5.12l58.88 58.88c-48.64 39.68-120.32 37.12-165.12-7.68L64 211.20000000000005c-47.36-47.36-47.36-126.72 0-174.08l110.08-110.08c47.36-47.36 126.72-47.36 174.08 0l194.56 194.56c46.08 46.08 47.36 121.6 5.12 168.96l-58.88-58.88z m488.96 499.2l-110.08 110.08C820.48 888.32 741.12 888.32 693.76 840.96L499.2 646.4c-44.8-44.8-47.36-117.76-7.68-165.12l58.88 58.88c-3.84 7.68-5.12 15.36-5.12 19.2 0 6.4 1.28 19.2 11.52 29.44L751.36 782.08c10.24 10.24 23.04 11.52 29.44 11.52 6.4 0 19.2-1.28 29.44-11.52l110.08-110.08c10.24-10.24 11.52-23.04 11.52-29.44 0-6.4-1.28-19.2-11.52-29.44L725.76 419.84c-10.24-10.24-23.04-11.52-29.44-11.52-5.12 0-15.36 1.28-24.32 7.68L614.4 357.12c48.64-43.52 122.88-42.24 168.96 5.12l194.56 194.56c47.36 47.36 47.36 125.44 0 174.08z"  horiz-adv-x="1024" />

    
    <glyph glyph-name="image" unicode="&#59031;" d="M687.902468 474.304787m-62.931947 0a62.931948 62.931948 0 1 1 125.863895 0 62.931948 62.931948 0 1 1-125.863895 0ZM796.882182 718.562606H227.117818c-64.67153 0-117.165984-52.596782-117.165984-117.165984v-434.690916c0-64.67153 52.596782-117.165984 117.165984-117.165984h569.764364c64.67153 0 117.165984 52.596782 117.165984 117.165984V601.396622c0.102328 64.569202-52.494454 117.165984-117.165984 117.165984z m-569.764364-55.768962h569.764364c33.870691 0 61.49935-27.526332 61.499351-61.49935v-306.98511c-21.079644 12.791046-49.117618 22.819227-85.341861 22.819226h-0.102328c-37.247527 0-71.834516-10.232837-105.193565-20.158689-38.680124-11.460777-75.109024-22.205256-109.082042-14.4283-43.080244 9.925852-62.317977 33.154392-84.523234 60.169082-14.735285 17.805136-29.879884 36.224243-52.289797 51.061856-99.053862 65.2855-196.982113 42.05696-256.025582 9.311882V601.396622c-0.102328 33.870691 27.424003 61.397022 61.294694 61.397022z m569.764364-557.587288H227.117818c-33.870691 0-61.49935 27.526332-61.499351 61.49935V335.854502c0.306985 0.204657 0.61397 0.511642 0.920955 0.818627 4.297792 3.683821 106.319177 88.51404 224.303788 10.744479 15.349256-10.130509 27.321675-24.661137 40.010392-40.010393 25.070451-30.391526 53.517738-64.773858 115.017089-78.997502 48.196662-11.051464 93.52813 2.353553 137.427001 15.246927 31.005496 9.209553 60.27141 17.805136 89.434995 17.805137h0.102328c51.368842 0 77.155591-29.572899 85.44419-41.44299v-53.415409c0.102328-33.768362-27.526332-61.397022-61.397023-61.397022z"  horiz-adv-x="1024" />

    
    <glyph glyph-name="hot" unicode="&#58914;" d="M363.114988-127.89419499999997S209.12402 7.225899000000027 419.116668 297.19364199999995c0 0 46.666929-44.660043 55.994853-84.036651 0 0 93.333858 70.309276 74.664356 253.164591 0 0 317.326925-210.245215 163.332545-594.215777 0 0 480.652643 135.120094 88.664775 722.205964 0 0-9.334751-82.275506-37.332177-109.702949 0 0-27.987188 274.253961-415.323039 411.380941 0 0 146.21599-281.871936-83.999107-489.09317a778.112078 778.112078 0 0 1-63.776657 117.320926s-11.672705-131.246258-94.883392-201.818341C55.156945 278.91323-3.988174-73.04954599999996 363.114988-127.89419499999997z"  horiz-adv-x="1024" />

    
    <glyph glyph-name="monkey" unicode="&#58898;" d="M349.9008 648.546987c-5.226496-14.311424-13.241003-27.649365-19.135147-44.427947-18.915328-53.84192-17.96096-103.305216-1.425408-155.406336-39.105877-10.26048-61.205163-25.381547-72.612522-61.105493-17.870848-55.965013 26.045099-89.934507 28.18321-96.10991-27.732651-4.893355-58.803541 12.353536-59.644586 29.346475-5.514581-1.120939-4.460544 3.495253-4.685824-7.775573-0.316757-15.787349 18.55488-37.228544 42.087765-44.537174l-16.532821-20.679338c-2.828971-3.321856-1.525077-1.275221-4.511062-5.674326-30.149291-44.436139-34.891093-87.487829 0.709974-130.012501 22.720512-27.140096 63.071573-34.264405 99.672064-28.908203 7.868416-16.628395-0.756395-19.603456-14.184448-26.344106-59.139413-29.682347-149.248683-27.710805-188.444672 18.191701-36.158123 42.344448 5.526869 47.188651-2.166784 69.913259-3.394219 5.864107-37.400576 22.032384-44.539904-33.998166 0.025941-32.346112 15.642624-51.01568 33.051989-68.067328 38.049109-37.264043 108.371968-47.112192 160.661504-39.292928 14.864384 2.222763 29.044736 4.844203 43.15136 8.383147 12.151467 3.047424 27.499179 12.171947 38.301696 11.879765 0.435541-11.538432-0.105131-25.628672-4.932949-35.02353-5.842261-11.369131-5.274283-1.209685-21.58319-19.671723-36.631893-41.469269 47.4112-108.710571 140.622507-84.884139 12.509184 3.197611 20.708011 10.343765 28.605099 12.578816 9.663829 2.736128 44.632747-27.859627 71.323648 11.350016 3.753301 5.513216 5.219669 8.873301 6.075733 17.01615 2.74432 26.083328-11.332267 45.954389-27.993429 55.23729-21.150379 11.782827-47.026176 7.53664-70.384299 3.020118l1.796779 31.356245c17.930923 3.009195 37.244928 6.671019 52.192597 16.045397 8.172885 5.125461 6.335147 6.361088 17.913173 5.05856 19.757739-2.220032 57.752235-9.362091 66.3552-26.643114 10.838016-21.771605 36.855808-27.002197 64.598016-11.908438 20.460885 11.132928 33.548971 36.90496 34.749099 59.577686 20.870485-3.637248 29.231787 10.192213 35.835904 18.269525 4.052309 16.767659 1.14688 14.899883-2.284203 28.033024 17.786197 1.209685 42.979328 14.419285 40.697856 40.285525-4.038656 45.755051-54.923264 49.087829-100.069376 13.702486-28.744363-22.528-26.477909-32.014336-35.885056-43.873622-9.609216 4.537003-22.351872 13.094912-36.058453 12.109142 2.575019 13.695659 7.865685 25.9072 10.413397 41.674069 2.239147 13.854037 3.806549 31.225173 1.724416 44.003328 29.801131-8.409088 63.646379-13.894997 96.919552-4.448256 22.115669 6.280533 20.448597 5.696171 39.647915-5.982891 23.014059-13.998763 20.845909-36.256427 22.567595-31.196501 0.099669 0.296277 0.466944-0.909312 0.764586-1.323008 10.013355 30.429184-14.964053 54.454955-14.528512 58.150912l10.397014 3.384661c3.806549 4.222976 8.945664 5.38624 14.06976 8.968875 27.253419 19.054592 20.247893 16.906923 38.327637 33.880747 14.707371 13.807616 7.51616 11.060565 27.234304 19.977557 9.370283 4.237995 22.048768 13.100373 28.464469 19.053227 43.996501 40.835755 55.812096 78.569472 24.63744 130.822144 19.924309 21.763413 12.263424 37.721429-0.84241 58.778965-25.260032 26.775552-76.428629 18.776064-85.078016-6.912683-5.943296-17.649664 8.709461-20.970155-3.536214-27.223381-4.537003 5.532331-5.450411 10.618197-6.600021 18.074283-8.213845 53.334016 28.108117 131.903488-31.365803 209.77664-25.427968 33.295019-32.799403 28.372992-48.179882 42.13009 16.456363 20.227413 26.8288 34.391381 20.493653 72.100523-10.073429 22.250837-16.412672 31.679829-37.336405 43.298816-17.240064 9.575083-47.468544 13.220523-68.1984 6.763861 78.669141-6.959104 50.76992-72.906069 22.482944-84.743509-14.887595-6.231381-50.716672 5.917355-70.06208 7.293611-25.217707 1.792683-51.452587-0.192512-75.774635-3.549867-58.744832-8.107349-127.763797-43.849045-162.080085-85.149013-5.915989-7.120213-11.590315-14.415189-18.381483-22.863872-3.584-4.456448-11.852459-18.857984-15.691776-21.74976zM416.426667 426.837333c7.401472-8.579755 16.95744-8.855552 19.484672-19.785045-14.532608 7.944875-13.396651 16.004437-45.75232 26.576213-19.753643 6.455296-44.262741 8.891051-65.291606 3.984043-89.060693-20.783104-76.805461-143.521109 13.994667-160.284672 36.032512-6.651904 74.308267 2.669227 96.903168 28.696576 6.083925 7.005525 3.087019 6.264149 10.222251 8.35584l0.212992-2.319701c1.093632-7.019179 1.941504-7.415125 8.639829-11.546624 5.561003-3.432448 12.559701-8.039083 18.031957-10.72879 45.027328-22.134784 89.109845-32.828075 142.058838-31.555584 50.230613 1.205589 116.271787 15.657643 155.353088 47.049387 4.531541 3.638613 11.156139 9.648811 14.11345 11.881131-20.669781 0.513365-34.228907-7.187115-58.796714 2.475349-14.45888 5.686613-36.057088 20.183723-29.332822 34.489685 4.333568-3.586731 8.392704-24.734379 47.415296-30.493354 22.71232-3.351893 47.116288 1.008981 65.686187 10.40384 31.914667 16.143701 58.981035 53.764096 44.937216 105.092437-7.704576-6.930432-8.141483-17.01888-20.609707-14.290944a20.43904 20.43904 0 0 0-11.370496 1.968811c5.256533-29.701461-49.567061-22.360064-29.504853 1.829546 2.875392-7.04512 0.711339-12.734464 8.246613-15.19889 18.830677-6.157653 28.471296 27.332608-15.010474 26.23488-46.848683-1.182379-85.878101-44.7488-160.632832-32.292864-26.774187 4.461909-56.280405 15.896576-69.003947 32.19456-19.158357 8.578389-40.229547 59.546283-36.930901 95.82592 1.687552 18.552149 7.725056 37.134336 17.170432 50.664789 4.333568 6.209536 8.790016 13.503147 14.255445 18.675029 5.294763 5.009408 11.902976 12.129621 18.154837 14.420651 14.146219 15.373653 49.519275 26.558464 74.601814 28.07808 39.232853 2.378411 54.173696-6.680576 84.575573-17.970517 3.869355 6.436181 5.073579 13.671083 10.093909 21.203626 22.443349 33.675947 40.374272 27.164672 57.87375 34.601643-6.941355 13.119488-17.861291 21.151744-27.821398 29.891243-4.506965 3.954005-11.356843 10.519893-16.575146 12.537856-11.086507 4.287147-13.324288-2.259627-23.561558-5.75215l-5.208746 1.873238c7.953067 6.602752 54.179157 17.485824 50.133674 72.39953-2.464427 33.438379-33.062912 56.418304-65.019904 57.230678 7.895723-7.901184 17.900885-15.19616 20.045824-32.393899 2.247339-18.003285-5.79584-30.326784-14.518954-38.813696-9.061717-8.815957-32.575488-24.506368-45.640363-18.96448-12.752213 5.409451-2.289664 4.629845-31.257941 8.144213-181.190656 21.987328-323.069269-110.705323-309.775019-277.797546 1.449984-18.2272 5.608789-28.543659 8.420011-43.978752 13.994667-3.302741 29.529429-2.179072 45.563904-6.589099 14.968149-4.120576 24.253781-9.323861 35.426304-16.022187zM395.614891 71.77830400000005c47.39072 7.797419 7.958528 18.550784 53.054122 58.369365 2.592768 2.292395 3.521195 2.809856 5.768534 4.644864 28.880896 23.586133 72.690347 33.282731 108.945408 20.601515 13.815808-4.831915 31.222443-15.223467 43.451733-24.271531a112.170325 112.170325 0 0 0 2.382507-1.810432c2.790741-2.27328 1.14688-0.621227 3.437909-3.107498l4.9152 4.859221c0.316757 0.270336 0.981675 0.718165 1.465003 1.086805 13.193216 14.726485 18.26816 96.597333 8.658944 116.619947-12.674389 3.844779-40.370176 1.20832-56.1152 2.793472-31.958357 3.216725-66.561365 11.807403-94.752768 25.455275-14.258176 6.900395-25.298261 15.648085-36.939094 22.248106-28.626944-22.846123-45.333163-39.400789-98.500608-31.775402-17.825792 2.555904-35.390805 15.788715-51.443029 13.337941-24.566443-3.753301-36.021589 1.346219-51.665579 13.351595 4.822357-15.712256 28.060331-19.268949 37.29408-21.816662 0.813739-0.223915 2.831701-0.823296 3.465216-1.081344 6.051157-2.476715 0.233472 1.478656 5.221035-2.961408-7.420587-3.431083-15.312213-10.836651-19.987115-15.492437-53.783211-53.557931-46.114133-143.504725 21.288278-158.12608-2.999637 7.988565-11.799211 15.730005-6.456662 25.257301 7.042389-11.537067 10.682368-21.165397 27.519659-29.611349 27.952469-14.020608 73.034411 11.831979 54.696619 42.566997-3.020117 5.062656-10.072064 10.435243-17.667414 9.341611-9.823573-1.41312-12.024491-9.097216-14.596778-14.887595-12.245675 9.17504-8.956587 7.525717-15.495168 21.307392-18.277717 1.10592-33.211733 9.061717-35.859115 23.543808 2.146304-0.774144 39.119531-32.352939 57.619797-2.86993 6.195883 9.872725 2.854912 23.831893-4.829184 29.372416-10.039296 7.237632-25.998677 3.040597-38.54336 5.218304 23.258453 6.36928 20.824064 2.120363 33.333248 12.570624 32.684715 27.308032 112.859819 30.060544 124.478806 7.405568-18.449749 2.484907-24.320683 3.384661-43.940523-13.707947-20.52096-17.877675-37.438805-36.693333-42.912427-65.566037 14.39744-8.107349 17.689259-27.874645 6.706518-42.470059-7.294976-9.696597-21.008384-11.776-9.194155-42.736299 5.354837-14.031531 15.275349-28.614656 17.696085-44.227242 5.252437-33.878016-16.104107-44.944043-16.610645-45.592576-5.595136-2.899968-8.851456-3.463851-12.470955-7.606272-21.833045-24.993792 12.066816-60.699989 49.986219-69.677056 30.382763-7.193941 67.01056-3.4816 95.914667 8.536064 17.951403 7.462912 7.950336 12.455936 14.109354 24.126805 5.948757-5.668864 4.516523-11.329536 9.730731-18.16576 24.320683-31.883264 82.541227 6.707883 54.501376 40.450731-9.329323 11.228501-17.648299 11.739136-30.104235 9.885013l-12.704426 2.086229c7.327744 2.684245 17.870848 6.108501 28.513621 5.494102-21.762048 17.978709-62.840832 8.562005-77.191851-1.511424-6.227285-4.370432-9.598293-15.047339-29.252266-22.354603-12.756309-4.744533-34.030933-11.347285-40.07936 2.489003l12.845056 2.727936c0.555691 0.042325 8.637099 1.463637 11.838805 2.057557 9.752576 1.804971 17.504939 5.57056 24.948736 10.102101 14.065664 8.563371 9.919147 3.742379 16.382635 18.311851 18.030592 40.647339-15.578453 94.251691-81.246891 83.124224l-0.907947 7.152981-0.34816 1.691648c-0.021845 0.135168-0.114688 0.866987-0.132437 0.991232-0.036864 0.253952-0.151552 1.564672-0.222549 2.247339zM550.914731 604.7389009999999c-5.465429-5.171883-9.923243-12.465493-14.255446-18.675029-9.445376-13.531819-15.48288-32.114005-17.170432-50.664789-3.298645-36.279637 17.772544-87.247531 36.930902-95.82592 7.80288-0.268971 6.765227-1.260203 11.879765-5.204651 3.820203-2.945024 6.370645-4.608 11.449685-6.941355-4.384085 12.401323-38.548821 47.490389-23.161514 97.731926 29.017429 94.744576 148.02944 72.675328 166.507861-39.920982 3.672747-22.381909-3.977216-39.189163-6.245035-57.59249 5.491371 0.28672 20.495019 5.724843 26.039638 7.84657 19.88608 7.604907 48.623616 13.813077 68.99712 2.543616a22.807893 22.807893 0 0 0-1.73807 8.772267c0 6.088021 2.362027 11.602603 6.186326 15.598933-39.900501 15.108779-41.362773 118.5792 16.902826 120.437419-0.069632 26.980352-8.937472 52.734635-19.876522 75.998549-2.463061 5.237419-3.786069 12.514645-8.036352 16.714411-7.327744 7.244459-31.769941-0.521557-35.581952-3.182592-22.002347-13.524992-26.968064-23.393621-33.255424-47.540907-18.061995-8.123733-43.761664 39.305216-128.906582 12.147371-17.03936-5.436757-43.223723-19.524267-56.666794-32.242347zM861.836629 429.350912c4.063232-10.074795 1.090901-27.234304 4.449622-37.49888 8.017237-2.33472 13.852672-2.286933 21.953194-0.991232 10.128043 1.622016 12.313941 4.020907 19.085995 8.127829-6.186325-18.154837-23.199744-5.421739-54.555989-36.171776-15.742293-15.439189-14.174891-42.956117 1.605632-54.41536 2.74432-1.993387 4.602539-2.534059 7.397376-4.56977-20.976981-5.399893-32.983723 18.400597-29.670059 36.184064-6.089387-2.162688-15.517013-8.372224-20.974251-11.537067-24.218283-14.04928-16.408576-22.205781-62.372522-47.159979-26.936661-14.624085-83.109205-32.082603-116.002816-30.543872l10.440704-36.242773c20.302507-7.453355 69.154133-7.901184 90.060117-2.012501 5.741227 1.61792 14.036992 10.143061 37.464747-2.097152 14.599509-7.628117 20.937387-17.904981 28.123136-22.514347-3.999061 32.630101-30.431915 37.442901-35.79631 45.899776 17.255083-6.262784 11.066027-7.535275 40.818006 10.993664 13.654699 8.504661 25.000619 16.487765 34.067797 27.979776 27.52512 34.882901 16.698027 11.18208 56.105643 34.391381 58.182315 34.267136 61.571072 128.786432 15.246677 136.769536-24.257877 4.180651-33.992704-5.507755-47.446699-14.591317zM395.614891 71.77830400000005c0.070997-0.682667 0.185685-1.993387 0.223914-2.248704 0.017749-0.124245 0.111957-0.856064 0.132438-0.991232l0.34816-1.691648c21.146283 9.620139 46.693035 6.785707 64.850602-9.364821l12.167851-10.60591c7.124309-7.759189 8.930645-12.817749 13.855403-22.727338 54.654293-6.711979 115.385685 54.870016 131.842048 108.000597-0.483328-0.36864-1.148245-0.816469-1.465003-1.086805l-4.9152-4.859222c-2.291029 2.486272-0.647168 0.834219-3.437909 3.107499a107.767125 107.767125 0 0 1-2.382507 1.810432c-12.229291 9.048064-29.635925 19.439616-43.451733 24.271531-36.255061 12.681216-80.064512 2.985984-108.945408-20.601515-2.247339-1.836373-3.1744-2.353835-5.768534-4.644864-45.095595-39.817216-5.663403-50.570581-53.054122-58.368zM672.830805 103.84179200000005c10.201771-10.091179 6.862165-3.885739 13.899094-16.501419 4.784128-8.575659 8.82688-17.798485 0.312661-24.686592-0.141995 0.270336-8.282112 53.336747-60.922539 51.354283l-26.010965-40.392021c-2.801664-4.057771-29.121195-30.937088-33.161216-32.324267 24.648363-4.004523 23.115093 1.757184 48.452949-12.995243 6.407509-3.730091 7.854763-4.558848 13.408939-1.145514 2.665131-32.807595 35.400363-34.075989 61.743104-19.26895 5.948757 3.345067 7.768747 5.249707 12.207445 10.392918 3.605845 4.17792 7.563947 7.772843 11.193003 13.39392 16.26112 25.176747 5.704363 28.594176 1.862315 36.052992 25.701035-5.911893 45.07648 2.341547 40.793429 23.262549-3.702784 18.094763-32.673792 20.171435-40.725163 1.851392-4.339029 12.570624 10.697387 24.444928 28.506795 19.57888 2.063019 2.427563 2.431659 0.613035 2.398891 7.2704 21.286912-21.927253 66.140843 14.083413 35.991552 40.902656-16.423595 14.610432-37.407403 9.706155-56.879787 1.458176-17.222315-7.292245-47.24736-35.299328-53.070507-58.20416zM615.254699 413.746517c19.562496-6.213632 52.779691-3.903488 71.722325 1.466368 9.921877 2.47808 21.486251 4.126037 24.930987 11.578027 3.386027 17.360213 7.660885 20.900523 5.995178 44.026539-5.438123 75.464704-114.443605 96.666965-126.319274 15.324501-5.8368-39.989248 13.135872-56.014165 23.670784-72.395435zM579.74784 427.425792c7.902549-5.884587 22.563499-13.538645 35.506859-13.68064-10.534912 16.382635-29.507584 32.407552-23.670784 72.395435 11.874304 81.342464 120.879787 60.140203 126.319274-15.324502 1.667072-23.126016-2.607787-26.66496-5.995178-44.026538 5.619712-2.050731 1.419947-2.195456 4.941141 0.853333 2.267819 18.403328 9.919147 35.211947 6.245035 57.592491-18.478421 112.596309-137.490432 134.665557-166.507862 39.920981-15.387307-50.240171 18.777429-85.327872 23.161515-97.73056zM362.408619 34.022740999999996c-5.701632 8.27392-8.546987 14.513493-13.254656 21.707435l-15.181142-8.805035c-35.885056-21.734741-98.825557-29.227691-139.195733-14.95313-25.512619 9.019392-45.782357 18.249045-60.276736 34.669909-34.657621 39.257429-7.103829 63.414272-6.32832 68.367701-18.348715 7.615829-26.965333-13.653333-28.453547-22.788778-3.762859-23.095979 9.695232-46.619307 23.513771-61.136896 2.2528-2.366123 4.687189-4.620288 7.2704-6.979584 2.598229-2.372949 4.739072-4.676267 7.456085-7.0656 1.268395-1.112747 1.194667-1.194667 3.488427-2.732032 0.581632-0.390485 3.936256-2.185899 5.268821-2.975062 3.508907-2.078037 4.740437-3.343701 8.602966-5.50912l20.212394-8.839168c27.486891-10.596352 67.495253-12.892843 99.771734-9.883648 23.747243 2.21184 73.678848 14.467072 87.105536 26.923008zM919.378603 462.857557c-1.135957-5.170517-0.324949-2.329259-2.082134-6.053888l-3.844778-6.602752c3.189419-1.389909 14.977707-9.886379 20.21649 8.900608 9.370283 33.604949-29.544448 58.210987-60.022784 47.965526-28.254208-9.498624-37.755563-51.535872 15.305387-52.909398 17.017515-0.441003 19.49696 2.857643 30.427819 8.699904zM829.901483 468.855467l1.257472 1.944234c-3.362816 2.599595 1.501867 0.090112-4.504235 1.845931-2.676053 0.782336-4.13696 0.768683-6.590464 1.505963-5.379413 1.615189-7.026005 3.070635-9.885013 6.500352-10.328747 12.398592-14.121643 50.663424 13.460821 59.725141l6.365184 2.037077c3.717803 11.594411 3.167573 27.202901 3.231744 40.430251-58.2656-1.858219-56.803328-105.32864-16.902827-120.437419 3.519829 3.678208 8.278016 6.073003 13.567318 6.44847zM688.514564 420.168257a26.624000000000002 38.912 22.718000000000004 1 1-30.055305 71.786166 26.624000000000002 38.912 22.718000000000004 1 1 30.055305-71.786166ZM661.644583 436.828089a9.145003 10.757461 14.093000000000004 1 1-5.238809 20.867361 9.145003 10.757461 14.093000000000004 1 1 5.238809-20.867361ZM833.099093 543.991125s-32.967339-7.854763-30.45376-41.61536c1.780395-23.92064 10.351957-23.044096 31.47776-32.11264 0.918869 13.834923-1.677995 24.018944-2.048 33.792-0.940715 24.844971 1.024 39.936 1.024 39.936zM831.366485 424.703317c11.687253 0 21.21728 9.928704 21.21728 22.102016s-9.530027 22.102016-21.21728 22.102016c-11.688619 0-21.218645-9.928704-21.218645-22.102016s9.531392-22.102016 21.218645-22.102016z"  horiz-adv-x="1024" />

    
    <glyph glyph-name="zan" unicode="&#58924;" d="M831.003 512.398c-20.209 24.156-49.863 38.012-81.358 38.012h-96.051l15.215 149.985c2.57 25.322-5.743 50.675-22.809 69.559-17.066 18.884-41.45 29.714-66.903 29.714a90.087 90.087 0 0 1-82.839-54.555l-61.507-143.058a85.287 85.287 0 0 0-78.424-51.645h-38.714c-22.084 0-40.049-17.967-40.049-40.051v-358.211c0-22.082 17.965-40.049 40.049-40.049h403.588c44.385 0 82.289 31.709 90.128 75.396l42.72 238.111c5.562 31-2.837 62.634-23.046 86.792zM253.306 536.488c0 4.941-3.801 9.349-8.742 9.406l-0.117 0.001h-29.49c-16.797 0-30.413-13.616-30.413-30.413v-372.064c0-16.798 13.617-30.415 30.415-30.415h29.489l0.117 0.001c4.94 0.057 8.742 4.466 8.742 9.406l-0.001 414.078z"  horiz-adv-x="1024" />

    
    <glyph glyph-name="tag" unicode="&#58899;" d="M443.2-48.299999999999955c-25.7 0-51.5 9.8-71.1 29.4L109.3 243.89999999999998c-19 19-29.4 44.2-29.4 71.1 0 26.9 10.5 52.1 29.4 71.1l330.5 330.5c28 28 65.2 44.5 104.8 46.4l250.9 12c28.9 1.4 57.3-9.6 77.7-30 20.5-20.5 31.4-48.8 30-77.7l-12.1-250.9c-1.9-39.6-18.4-76.8-46.4-104.8L615.2 81.89999999999998c-9.8-9.8-25.6-9.8-35.4 0-9.8 9.8-9.8 25.6 0 35.4l229.6 229.6c19.2 19.2 30.5 44.7 31.8 71.8l12.1 250.9c0.7 15.1-4.8 29.3-15.4 40-10.7 10.7-24.9 16.2-40 15.4L547 713c-27.1-1.3-52.6-12.6-71.8-31.8L144.6 350.70000000000005c-9.5-9.5-14.8-22.2-14.8-35.7 0-13.5 5.3-26.2 14.8-35.7l262.8-262.8c19.7-19.7 51.8-19.7 71.5 0l13.6 13.6c9.8 9.8 25.6 9.8 35.4 0s9.8-25.6 0-35.4l-13.6-13.6c-19.6-19.6-45.4-29.4-71.1-29.4zM613.9 369c-31.2 0-60.5 12.1-82.5 34.2-45.5 45.5-45.5 119.5 0 165 22 22 51.4 34.2 82.5 34.2s60.5-12.1 82.5-34.2c45.5-45.5 45.5-119.5 0-165-22-22.1-51.3-34.2-82.5-34.2z m0 183.4c-17.8 0-34.6-6.9-47.2-19.5-26-26-26-68.3 0-94.3 12.6-12.6 29.4-19.5 47.2-19.5s34.6 6.9 47.2 19.5c26 26 26 68.3 0 94.3-12.7 12.5-29.4 19.5-47.2 19.5z"  horiz-adv-x="1024" />

    
    <glyph glyph-name="null" unicode="&#59497;" d="M170.440084 196.16457100000002h21.127579c5.750702-0.125015 10.251251-4.75058 10.251252-10.501282 0-5.750702-4.500549-10.501282-10.251252-10.501282h-21.127579v-21.127579c-0.125015-5.625687-4.75058-10.251251-10.501281-10.251251-2.750336 0-5.375656 1.000122-7.375901 2.875351-2.000244 1.875229-3.125382 4.500549-3.125381 7.250885v21.127579h-21.127579c-5.750702 0.125015-10.251251 4.75058-10.251252 10.501282 0 5.750702 4.500549 10.501282 10.251252 10.501282h21.127579V217.16713500000003c0.125015 5.750702 4.75058 10.251251 10.501282 10.251251 5.750702 0 10.501282-4.500549 10.501281-10.251251v-21.002564zM1549.233394 279.674765v21.127579c0 2.750336-1.125137 5.375656-3.125381 7.250885s-4.625565 3.000366-7.375901 2.875351c-5.625687 0-10.376267-4.500549-10.501282-10.251251V279.674765h-21.127579c-2.750336 0-5.375656-1.125137-7.250885-3.125382s-3.000366-4.625565-2.875351-7.3759c0-5.625687 4.625565-10.501282 10.251252-10.501282h21.127579v-21.127579c0-5.750702 4.625565-10.251251 10.501281-10.251251 5.750702 0 10.376267 4.500549 10.501282 10.251251v21.127579h21.127579c5.750702 0 10.251251 4.625565 10.251252 10.501282 0 5.625687-4.500549 10.376267-10.251252 10.501282h-21.252594z m-758.842632-344.667074h-525.939202c-5.500671 0-10.876328 2.250275-14.7518 6.125748-3.875473 3.875473-6.125748 9.251129-6.125748 14.751801 0 11.501404 9.50116 20.877549 20.877548 20.877548h94.761568c-7.3759 12.626541-11.126358 27.003296-11.126358 41.630082V624.466854c0 22.127701 8.876084 43.380295 24.502991 59.132218 15.626908 15.626908 37.004517 24.377976 59.132218 24.377976h62.632646v21.002564c0 22.127701 8.876084 43.380295 24.502991 59.132218a83.960249 83.960249 0 0 0 59.132218 24.377976h501.18618c22.127701 0 43.505311-8.751068 59.132218-24.377976 15.751923-15.626908 24.502991-36.879502 24.502991-59.132218v-606.073984c0-15.126847-4.000488-29.378586-11.126358-41.630082h115.514101c11.501404 0 20.877549-9.251129 20.877549-20.877548 0-11.501404-9.251129-20.877549-20.877549-20.877549H1016.543368v-21.002564c0-15.126847-4.000488-29.378586-11.126358-41.630081h11.251374c11.501404 0 20.877549-9.251129 20.877548-20.877549 0-11.501404-9.50116-20.877549-20.877548-20.877548h-109.888414c9.50116-16.001953 7.500916-37.004517-6.375779-50.881211-7.875961-7.875961-18.502259-12.251496-29.503601-12.251496-11.126358 0-21.752655 4.375534-29.503602 12.251496l-51.006226 50.756195z m76.384324 41.755097h66.383104c23.002808 0 41.630082 18.627274 41.630081 41.880113V625.4669759999999c0 22.627762-18.002198 40.754975-40.379929 40.754975H430.096781c-22.252716 0-40.379929-18.252228-40.379929-40.754975v-606.824075c0-23.127823 18.752289-41.880112 41.630081-41.880113h317.163717l-10.751313 10.751313c-10.626297 10.501282-14.751801 26.003174-10.876327 40.379929l-19.752412 19.752411c-61.382493-45.755585-147.768038-36.379441-197.899157 21.62764-50.13112 57.882066-47.005738 144.642657 7.000854 198.89928 54.256623 54.381638 141.267245 57.632035 199.274326 7.3759 58.007081-50.256135 67.383225-136.89171 21.252594-198.274203l19.752411-19.752411c14.376755 3.875473 29.878647-0.250031 40.37993-10.876328l69.88353-69.883531z m149.768282 104.512758h62.882677c23.002808 0.125015 41.630082 18.752289 41.630081 41.755097V728.854597c0 23.127823-18.627274 41.755097-41.630081 41.755097H577.614788c-23.002808-0.125015-41.505067-18.752289-41.630081-41.755097v-20.877549h396.798437c22.127701 0 43.505311-8.751068 59.132218-24.377976 15.751923-15.626908 24.502991-36.879502 24.502991-59.132218v-543.191308z m-736.339885 767.718716H311.332283c8.751068 0 15.876938-7.000855 15.876938-15.626908S320.083351 817.740447 311.332283 817.740447h-31.1288v-31.1288c0-8.751068-7.000855-15.876938-15.626907-15.876938-4.125504 0-8.125992 1.750214-11.126359 4.75058-3.000366 3.000366-4.625565 7.000855-4.500549 11.126358V817.615432h-31.1288c-4.250519 0-8.251007 1.625198-11.251373 4.500549-3.000366 3.000366-4.625565 7.000855-4.625565 11.126358 0 8.626053 7.12587 15.626908 15.876938 15.626908h31.1288v31.253815c0 8.751068 7.000855 15.876938 15.626908 15.876938s15.626908-7.12587 15.626907-15.876938v-31.1288zM34.673511-44.11476000000005c0 11.501404 9.50116 20.877549 20.877549 20.877548h125.515322c11.501404 0 20.877549-9.251129 20.877548-20.877548 0-11.501404-9.50116-20.877549-20.877548-20.877549h-125.515322c-5.500671 0-10.876328 2.250275-14.751801 6.125748-4.000488 3.875473-6.125748 9.251129-6.125748 14.751801z m658.830424 135.016481c40.754975 40.754975 40.754975 106.888048 0 147.768038-40.754975 40.754975-106.888048 40.754975-147.768038 0-40.754975-40.754975-40.754975-106.888048 0-147.768038 40.87999-40.754975 107.013063-40.754975 147.768038 0zM473.352061 582.586742c0 11.501404 9.376145 20.877549 20.877548 20.877548h229.77805c11.501404 0 20.877549-9.376145 20.877548-20.877548s-9.376145-20.877549-20.877548-20.877549H494.229609c-5.500671 0-10.876328 2.125259-14.7518 6.125748-3.875473 3.875473-6.125748 9.251129-6.125748 14.751801z m0-104.387743c0 11.501404 9.251129 20.877549 20.752533 20.877548h334.540838c11.501404 0 20.752533-9.251129 20.752533-20.877548 0-11.501404-9.251129-20.877549-20.752533-20.877549H494.104594c-5.500671 0-10.876328 2.250275-14.751801 6.125748-3.875473 3.875473-6.000733 9.251129-6.000732 14.751801z m0-104.512758c0 11.501404 9.376145 20.877549 20.877548 20.877549h146.267855c11.501404 0 20.877549-9.251129 20.877549-20.877549 0-11.501404-9.376145-20.877549-20.877549-20.877549h-146.267855c-5.500671 0-10.876328 2.125259-14.7518 6.125748-3.875473 3.875473-6.125748 9.251129-6.125748 14.751801z m-396.923453 125.390306c-22.377732 0-43.130265 12.001465-54.256623 31.378831-11.251373 19.377365-11.251373 43.25528 0 62.632645s31.878891 31.37883 54.256623 31.378831c34.629227 0 62.632646-28.003418 62.632646-62.632646 0.125015-34.754242-28.003418-62.757661-62.632646-62.757661z m0 31.378831c11.251373 0 21.502625 6.000733 27.128312 15.626907 5.625687 9.75119 5.625687 21.62764 0 31.378831-5.625687 9.75119-16.001953 15.626908-27.128312 15.626907-17.252106 0-31.37883-14.001709-31.37883-31.37883 0.125015-17.252106 14.126724-31.253815 31.37883-31.253815z m1295.283116 94.011476c-22.377732 0-43.130265 12.001465-54.256623 31.37883-11.251373 19.377365-11.251373 43.25528 0 62.632646s31.878891 31.37883 54.256623 31.37883c34.629227 0 62.632646-28.003418 62.632646-62.632645 0-34.754242-28.003418-62.757661-62.632646-62.757661z m0 31.253815c11.251373 0 21.502625 6.000733 27.128312 15.626908 5.625687 9.75119 5.625687 21.62764 0 31.37883-5.625687 9.75119-16.001953 15.626908-27.128312 15.626908-17.252106 0-31.37883-14.001709-31.37883-31.378831 0-17.127091 14.126724-31.253815 31.37883-31.253815z m0 0"  horiz-adv-x="1620" />

    
    <glyph glyph-name="search" unicode="&#58942;" d="M984.29737085 3.756547169999976L786.7508306 201.30308742c53.72333827 70.0345205 85.69843358 157.80421531 85.69843358 252.82332443 0 229.7805432-186.28405728 416.19405431-416.19405432 416.19405432S40.06115554 684.03640889 40.06115554 454.12641185c0-229.7805432 186.28405728-416.19405431 416.19405432-416.19405431 98.25545482 0 188.48477235 34.04635653 259.55492346 90.87658667l196.76981728-196.76981729c9.83849086-9.83849086 22.91332741-14.88719013 35.85871014-14.88719011s25.89076543 4.91924543 35.85871011 14.88719011c19.67698173 19.93588939 19.67698173 51.91098469 0 71.71742025z m-750.70274369 227.8387358c-59.41930667 59.41930667-92.17112494 138.51559506-92.17112495 222.66058272s32.75181827 163.11182222 92.17112495 222.66058271c59.41930667 59.41930667 138.51559506 92.17112494 222.6605827 92.17112494s163.11182222-32.75181827 222.66058272-92.17112494c59.41930667-59.41930667 92.17112494-138.51559506 92.17112494-222.66058271s-32.75181827-163.11182222-92.17112494-222.66058272c-59.41930667-59.41930667-138.51559506-92.17112494-222.66058272-92.17112494-84.14498765-0.12945383-163.24127605 32.62236445-222.6605827 92.17112494z m0 0"  horiz-adv-x="1024" />

    
    <glyph glyph-name="close" unicode="&#58963;" d="M874.666667 104.53333299999997L571.733333 405.333333 874.666667 706.133333c17.066667 17.066667 17.066667 44.8 0 59.733334-17.066667 17.066667-44.8 17.066667-59.733334 0L512 465.066667 211.2 768c-17.066667 14.933333-44.8 14.933333-61.866667 0s-14.933333-44.8 0-61.866667L452.266667 405.333333 149.333333 104.53333299999997c-17.066667-17.066667-17.066667-44.8 0-59.733333 17.066667-17.066667 44.8-17.066667 59.733334 0L512 345.6 812.8 42.66666699999996c17.066667-17.066667 44.8-17.066667 59.733333 0 17.066667 17.066667 17.066667 44.8 2.133334 61.866666z"  horiz-adv-x="1024" />

    


  </font>
</defs>
</svg>
