<?xml version="1.0" standalone="no"?><!DOCTYPE svg PUBLIC "-//W3C//DTD SVG 1.1//EN" "http://www.w3.org/Graphics/SVG/1.1/DTD/svg11.dtd"><svg t="1600441727360" class="icon" viewBox="0 0 1024 1024" version="1.1" xmlns="http://www.w3.org/2000/svg" p-id="5280" xmlns:xlink="http://www.w3.org/1999/xlink" width="200" height="200"><defs><style type="text/css"></style></defs><path d="M51.2 182.272c0 17.408 7.168 34.304 19.456 46.592 12.288 12.288 29.184 19.456 46.592 19.456 17.408 0 34.304-7.168 46.592-19.456 12.288-12.288 19.456-29.184 19.456-46.592 0-17.408-7.168-34.304-19.456-46.592-12.288-12.288-29.184-19.456-46.592-19.456-17.408 0-34.304 7.168-46.592 19.456-12.288 12.288-19.456 29.696-19.456 46.592zM51.2 511.488c0 17.408 7.168 34.304 19.456 46.592 12.288 12.288 29.184 19.456 46.592 19.456 17.408 0 34.304-7.168 46.592-19.456 12.288-12.288 19.456-29.184 19.456-46.592 0-17.408-7.168-34.304-19.456-46.592-12.288-12.288-29.184-19.456-46.592-19.456-17.408 0-34.304 7.168-46.592 19.456-12.288 12.288-19.456 29.696-19.456 46.592zM51.2 840.704c0 17.408 7.168 34.304 19.456 46.592 12.288 12.288 29.184 19.456 46.592 19.456 17.408 0 34.304-7.168 46.592-19.456 12.288-12.288 19.456-29.184 19.456-46.592 0-17.408-7.168-34.304-19.456-46.592-12.288-12.288-29.184-19.456-46.592-19.456-17.408 0-34.304 7.168-46.592 19.456-12.288 12.288-19.456 29.696-19.456 46.592zM972.8 188.416c0 32.768-26.624 59.904-59.904 59.904h-537.6c-32.768 0-59.904-26.624-59.904-59.904v-12.288c0-32.768 26.624-59.904 59.904-59.904h537.6c32.768 0 59.904 26.624 59.904 59.904v12.288zM972.8 517.632c0 32.768-26.624 59.904-59.904 59.904H374.272c-32.768 0-59.904-26.624-59.904-59.904v-12.288c0-32.768 26.624-59.904 59.904-59.904h538.624c32.768 0 59.904 26.624 59.904 59.904v12.288zM972.8 846.848c0 32.768-26.624 59.904-59.904 59.904H374.272c-32.768 0-59.904-26.624-59.904-59.904V834.56c0-32.768 26.624-59.904 59.904-59.904h538.624c32.768 0 59.904 26.624 59.904 59.904v12.288z" p-id="5281" fill="#707070"></path></svg>