<?xml version="1.0" standalone="no"?><!DOCTYPE svg PUBLIC "-//W3C//DTD SVG 1.1//EN" "http://www.w3.org/Graphics/SVG/1.1/DTD/svg11.dtd"><svg t="1594193189439" class="icon" viewBox="0 0 1024 1024" version="1.1" xmlns="http://www.w3.org/2000/svg" p-id="2246" xmlns:xlink="http://www.w3.org/1999/xlink" width="200" height="200"><defs><style type="text/css"></style></defs><path d="M363.114988 1023.894195S209.12402 888.774101 419.116668 598.806358c0 0 46.666929 44.660043 55.994853 84.036651 0 0 93.333858-70.309276 74.664356-253.164591 0 0 317.326925 210.245215 163.332545 594.215777 0 0 480.652643-135.120094 88.664775-722.205964 0 0-9.334751 82.275506-37.332177 109.702949 0 0-27.987188-274.253961-415.323039-411.380941 0 0 146.21599 281.871936-83.999107 489.09317a778.112078 778.112078 0 0 0-63.776657-117.320926s-11.672705 131.246258-94.883392 201.818341C55.156945 617.08677-3.988174 969.049546 363.114988 1023.894195z" p-id="2247" fill="#707070"></path></svg>