<?xml version="1.0" standalone="no"?><!DOCTYPE svg PUBLIC "-//W3C//DTD SVG 1.1//EN" "http://www.w3.org/Graphics/SVG/1.1/DTD/svg11.dtd"><svg t="1593936926591" class="icon" viewBox="0 0 1024 1024" version="1.1" xmlns="http://www.w3.org/2000/svg" p-id="3457" xmlns:xlink="http://www.w3.org/1999/xlink" width="200" height="200"><defs><style type="text/css"></style></defs><path d="M984.29737085 892.24345283L786.7508306 694.69691258c53.72333827-70.0345205 85.69843358-157.80421531 85.69843358-252.82332443 0-229.7805432-186.28405728-416.19405431-416.19405432-416.19405432S40.06115554 211.96359111 40.06115554 441.87358815c0 229.7805432 186.28405728 416.19405431 416.19405432 416.19405431 98.25545482 0 188.48477235-34.04635653 259.55492346-90.87658667l196.76981728 196.76981729c9.83849086 9.83849086 22.91332741 14.88719013 35.85871014 14.88719011s25.89076543-4.91924543 35.85871011-14.88719011c19.67698173-19.93588939 19.67698173-51.91098469 0-71.71742025z m-750.70274369-227.8387358c-59.41930667-59.41930667-92.17112494-138.51559506-92.17112495-222.66058272s32.75181827-163.11182222 92.17112495-222.66058271c59.41930667-59.41930667 138.51559506-92.17112494 222.6605827-92.17112494s163.11182222 32.75181827 222.66058272 92.17112494c59.41930667 59.41930667 92.17112494 138.51559506 92.17112494 222.66058271s-32.75181827 163.11182222-92.17112494 222.66058272c-59.41930667 59.41930667-138.51559506 92.17112494-222.66058272 92.17112494-84.14498765 0.12945383-163.24127605-32.62236445-222.6605827-92.17112494z m0 0" p-id="3458"></path></svg>