<?xml version="1.0" standalone="no"?><!DOCTYPE svg PUBLIC "-//W3C//DTD SVG 1.1//EN" "http://www.w3.org/Graphics/SVG/1.1/DTD/svg11.dtd"><svg t="1593946303647" class="icon" viewBox="0 0 1024 1024" version="1.1" xmlns="http://www.w3.org/2000/svg" p-id="4145" xmlns:xlink="http://www.w3.org/1999/xlink" width="200" height="200"><defs><style type="text/css"></style></defs><path d="M924.9 337.5c-22.5-53.3-54.8-101.2-95.9-142.3-41.1-41.1-89-73.4-142.3-95.9C631.5 76 572.9 64.1 512.5 64.1c-60.4 0-119 11.8-174.2 35.2-53.3 22.5-101.2 54.8-142.3 95.9-41.1 41.1-73.4 89-95.9 142.3-23.4 55.2-35.2 113.8-35.2 174.2s11.8 119 35.2 174.2c22.5 53.3 54.8 101.2 95.9 142.3s89 73.4 142.3 95.9c55.2 23.4 113.8 35.2 174.2 35.2 60.4 0 119-11.8 174.2-35.2 53.3-22.5 101.2-54.8 142.3-95.9s73.4-89 95.9-142.3c23.4-55.2 35.2-113.8 35.2-174.2s-11.8-119-35.2-174.2zM778.1 777.4c-70.9 70.9-165.3 110-265.6 110s-194.7-39.1-265.6-110c-70.9-70.9-110-165.3-110-265.6 0-100.3 39.1-194.7 110-265.6 70.9-70.9 165.3-110 265.6-110s194.7 39.1 265.6 110c70.9 70.9 110 165.3 110 265.6 0 100.3-39 194.6-110 265.6z" p-id="4146" fill="#8a8a8a"></path><path d="M587.6 353.1H437.4c-46.2 0-83.6 37.4-83.6 83.6v150.1c0 46.2 37.4 83.6 83.6 83.6h150.1c46.2 0 83.6-37.4 83.6-83.6V436.7c0-46.2-37.4-83.6-83.5-83.6z" p-id="4147" fill="#8a8a8a"></path></svg>